<?xml version="1.0" encoding="iso-8859-1"?>
<!-- Generator: Adobe Illustrator 19.0.0, SVG Export Plug-In . SVG Version: 6.00 Build 0)  -->
<svg version="1.1" id="Layer_1" xmlns="http://www.w3.org/2000/svg" xmlns:xlink="http://www.w3.org/1999/xlink" x="0px" y="0px"
	 viewBox="0 0 512 512" style="enable-background:new 0 0 512 512;" xml:space="preserve">
<path style="fill:#234848;" d="M503.395,481.882c0,11.881-9.631,21.513-21.513,21.513H30.118c-11.881,0-21.513-9.631-21.513-21.513
	V342.05h494.79V481.882z"/>
<path style="fill:#5B7F81;" d="M503.395,363.563H8.605v-43.025h494.79V363.563z"/>
<path style="fill:#CAEEC5;" d="M503.395,342.05H8.605V30.118c0-11.881,9.631-21.513,21.513-21.513h451.765
	c11.881,0,21.513,9.631,21.513,21.513V342.05z"/>
<path style="fill:#E3FBCD;" d="M406.588,8.605L169.95,342.05H8.605V235.955L169.95,8.605H406.588z"/>
<path style="fill:#C13421;" d="M277.513,264.476c-3.371,41.424-30.813,73.993-63.889,73.993l0,0
	c-33.077,0-60.521-32.569-63.889-73.993H277.513L277.513,264.476z"/>
<path style="fill:#FF4328;" d="M149.734,264.476h83.394c-2.577,31.664-19.225,58.135-41.697,68.86
	C168.959,322.611,152.309,296.14,149.734,264.476z"/>
<path style="fill:#F4BB19;" d="M276.036,208.431l-1.268-22.666h87.493l-8.542,152.702h-70.404L276.036,208.431z"/>
<path style="fill:#78A097;" d="M274.768,185.767h87.493l-2.123,37.964h-83.245l-0.856-15.3L274.768,185.767z"/>
<path style="fill:#FF4328;" d="M8.605,417.345h86.05v86.05H30.118c-11.881,0-21.513-9.631-21.513-21.513V417.345z M417.345,417.345
	v86.05h64.538c11.881,0,21.513-9.631,21.513-21.513v-64.538H417.345z"/>
<path d="M481.882,0H30.118C13.511,0,0,13.511,0,30.118v387.227v64.538C0,498.49,13.511,512,30.118,512h64.538h322.689h64.538
	C498.49,512,512,498.49,512,481.882v-64.538V30.118C512,13.511,498.49,0,481.882,0z M30.118,17.21h451.765
	c7.117,0,12.908,5.79,12.908,12.908V408.74h-77.445c-4.752,0-8.605,3.853-8.605,8.605v77.445H264.607V347.068h154.211
	c4.752,0,8.605-3.853,8.605-8.605s-3.853-8.605-8.605-8.605h-56.001l8.034-143.611c0.016-0.295,0.018-0.589,0.004-0.882
	c-0.095-2.049-0.921-4.008-2.344-5.513c-1.625-1.719-3.886-2.692-6.253-2.692h-87.493c-2.365,0-4.627,0.973-6.253,2.692
	c-1.423,1.505-2.248,3.464-2.344,5.513c-0.014,0.293-0.012,0.587,0.004,0.882l0.147,2.633l1.977,35.331
	c0,0.005,0.001,0.011,0.002,0.016l1.77,31.642H149.734c-2.403,0-4.697,1.006-6.327,2.772c-1.63,1.767-2.445,4.135-2.25,6.53
	c1.782,21.927,9.897,42.324,22.846,57.433c2.247,2.622,4.617,5.029,7.076,7.252H93.184c-4.752,0-8.605,3.853-8.605,8.605
	s3.853,8.605,8.605,8.605h154.214V494.79H103.261v-77.445c0-4.752-3.853-8.605-8.605-8.605H17.21V30.118
	C17.21,23,23,17.21,30.118,17.21z M213.445,329.858c-25.538-0.113-47.959-24.354-53.908-56.777h108.172
	c-5.95,32.424-28.372,56.665-53.908,56.777H213.445z M263.241,322.606c3.664-4.276,6.926-8.987,9.782-14.023l1.191,21.275h-18.048
	C258.625,327.635,260.994,325.228,263.241,322.606z M291.451,329.858l-5.458-97.522h65.044l-5.456,97.522H291.451z M353.161,194.372
	l-0.17,3.043L352,215.126h-66.971l-1.084-19.374l-0.077-1.38H353.161z M30.118,494.79C23,494.79,17.21,489,17.21,481.882V425.95
	h68.84v68.84H30.118z M494.79,481.882c0,7.117-5.79,12.908-12.908,12.908H425.95v-68.84h68.84V481.882z M206.521,210.582v-42.783
	c0-4.752,3.852-8.605,8.605-8.605c4.753,0,8.605,3.853,8.605,8.605v42.783c0,4.753-3.852,8.605-8.605,8.605
	C210.373,219.187,206.521,215.334,206.521,210.582z"/>
<g>
</g>
<g>
</g>
<g>
</g>
<g>
</g>
<g>
</g>
<g>
</g>
<g>
</g>
<g>
</g>
<g>
</g>
<g>
</g>
<g>
</g>
<g>
</g>
<g>
</g>
<g>
</g>
<g>
</g>
</svg>
