<?xml version="1.0" encoding="iso-8859-1"?>
<!-- Generator: Adobe Illustrator 16.0.0, SVG Export Plug-In . SVG Version: 6.00 Build 0)  -->
<!DOCTYPE svg PUBLIC "-//W3C//DTD SVG 1.1//EN" "http://www.w3.org/Graphics/SVG/1.1/DTD/svg11.dtd">
<svg version="1.1" id="Capa_1" xmlns="http://www.w3.org/2000/svg" xmlns:xlink="http://www.w3.org/1999/xlink" x="0px" y="0px"
	 width="410.487px" height="410.486px" viewBox="0 0 410.487 410.486" style="enable-background:new 0 0 410.487 410.486;"
	 xml:space="preserve">
<g>
	<path d="M50.693,199.756l14.36,14.362l-4.999,5.002l-14.367-14.361L31.321,219.12l-4.999-5.002l14.362-14.362l-14.362-14.362
		l5.005-5.004l14.36,14.361l14.367-14.361l4.999,5.004L50.693,199.756z M65.054,260.818l-4.999-5.004l-14.367,14.361l-14.36-14.361
		l-5.005,5.004l14.362,14.362l-14.362,14.363l4.999,5.002l14.367-14.358l14.367,14.358l4.999-5.002l-14.36-14.363L65.054,260.818z
		 M410.487,34.692v341.104c0,11.981-9.707,21.679-21.68,21.679H21.68C9.706,397.475,0,387.777,0,375.796V34.692
		c0-11.976,9.706-21.68,21.68-21.68h367.127C400.78,13.006,410.487,22.716,410.487,34.692z M77.331,320.5H17.346v50.96h59.985V320.5
		z M77.331,242.464H17.346v65.04h59.985V242.464z M77.331,168.739H17.346v60.707h59.985V168.739z M77.331,102.621H17.346v53.114
		h59.985V102.621z M161.887,320.5h-71.55v50.96h71.55V320.5z M161.887,242.464h-71.55v65.04h71.55V242.464z M161.887,168.739h-71.55
		v60.707h71.55V168.739z M161.887,102.621h-71.55v53.114h71.55V102.621z M239.936,320.5H174.89v50.96h65.046V320.5z
		 M239.936,242.464H174.89v65.04h65.046V242.464z M239.936,168.739H174.89v60.707h65.046V168.739z M239.936,102.621H174.89v53.114
		h65.046V102.621z M313.643,320.5h-60.704v50.96h60.704V320.5z M313.643,242.464h-60.704v65.04h60.704V242.464z M313.643,168.739
		h-60.704v60.707h60.704V168.739z M313.643,102.621h-60.704v53.114h60.704V102.621z M393.14,320.5h-66.484v50.96h66.484V320.5z
		 M393.14,242.464h-66.484v65.04h66.484V242.464z M393.14,168.739h-66.484v60.707h66.484V168.739z M393.14,102.621h-66.484v53.114
		h66.484V102.621z M269.332,147.212l14.369-14.361l14.37,14.361l4.996-5.004l-14.362-14.361l14.362-14.361l-4.996-5.005
		l-14.37,14.362l-14.358-14.362l-5.006,5.005l14.363,14.361l-14.363,14.361L269.332,147.212z M345.337,147.212l14.358-14.361
		l14.366,14.361l5.005-5.004l-14.362-14.361l14.362-14.361l-5.005-5.005l-14.366,14.362l-14.358-14.362l-5.001,5.005l14.358,14.361
		l-14.358,14.361L345.337,147.212z M111.325,219.12l14.362-14.361l14.37,14.361l5-5.002l-14.367-14.362l14.367-14.362l-5-5.004
		l-14.37,14.361l-14.362-14.361l-5.001,5.004l14.362,14.362l-14.362,14.362L111.325,219.12z M193.975,219.12l14.36-14.361
		l14.371,14.361l5-5.002l-14.365-14.362l14.365-14.362l-5-5.004l-14.371,14.361l-14.36-14.361l-5.002,5.004l14.362,14.362
		l-14.362,14.362L193.975,219.12z M269.332,219.12l14.369-14.361l14.37,14.361l4.996-5.002l-14.362-14.362l14.362-14.362
		l-4.996-5.004l-14.37,14.361l-14.358-14.361l-5.006,5.004l14.363,14.362l-14.363,14.362L269.332,219.12z M345.337,219.12
		l14.358-14.361l14.366,14.361l5.005-5.002l-14.362-14.362l14.362-14.362l-5.005-5.004l-14.366,14.361l-14.358-14.361l-5.001,5.004
		l14.358,14.362l-14.358,14.362L345.337,219.12z M111.325,294.546l14.362-14.358l14.37,14.358l5-5.002l-14.367-14.363l14.367-14.362
		l-5-5.004l-14.37,14.361l-14.362-14.361l-5.001,5.004l14.362,14.362l-14.362,14.363L111.325,294.546z M193.975,294.546
		l14.36-14.358l14.371,14.358l5-5.002l-14.365-14.363l14.365-14.362l-5-5.004l-14.371,14.361l-14.36-14.361l-5.002,5.004
		l14.362,14.362l-14.362,14.363L193.975,294.546z M269.332,294.546l14.369-14.358l14.37,14.358l4.996-5.002l-14.362-14.363
		l14.362-14.362l-4.996-5.004l-14.37,14.361l-14.358-14.361l-5.006,5.004l14.363,14.362l-14.363,14.363L269.332,294.546z"/>
</g>
<g>
</g>
<g>
</g>
<g>
</g>
<g>
</g>
<g>
</g>
<g>
</g>
<g>
</g>
<g>
</g>
<g>
</g>
<g>
</g>
<g>
</g>
<g>
</g>
<g>
</g>
<g>
</g>
<g>
</g>
</svg>
